<?xml version="1.0" encoding="iso-8859-1"?>
<!-- Uploaded to: SVG Repo, www.svgrepo.com, Generator: SVG Repo Mixer Tools -->
<svg height="800px" width="800px" version="1.1" id="Layer_1" xmlns="http://www.w3.org/2000/svg" xmlns:xlink="http://www.w3.org/1999/xlink" 
	 viewBox="0 0 511.997 511.997" xml:space="preserve">
<circle style="fill:#FF5B62;" cx="255.999" cy="255.999" r="255.999"/>
<path style="fill:#EDB937;" d="M258.242,369.71c0,16.855-35.243,30.526-78.719,30.526c-43.474,0-78.719-13.671-78.719-30.526
	v-30.529h78.719h78.719V369.71z"/>
<path style="fill:#FAD24D;" d="M179.523,313.918c43.476,0,78.719,12.491,78.719,27.893c0,15.405-35.243,27.893-78.719,27.893
	c-43.474,0-78.719-12.491-78.719-27.893C100.805,326.407,136.047,313.918,179.523,313.918z"/>
<path style="fill:#EDB937;" d="M258.245,331.43c0,16.855-35.245,30.526-78.719,30.526s-78.719-13.671-78.719-30.526v-30.529h78.719
	h78.719V331.43z"/>
<path style="fill:#FAD24D;" d="M179.526,275.638c43.474,0,78.719,12.491,78.719,27.893c0,15.405-35.245,27.893-78.719,27.893
	s-78.719-12.491-78.719-27.893C100.808,288.127,136.052,275.638,179.526,275.638z"/>
<path style="fill:#EDB937;" d="M258.242,292.792c0,16.855-35.243,30.526-78.719,30.526c-43.474,0-78.719-13.671-78.719-30.526
	v-30.529h78.719h78.719V292.792z"/>
<path style="fill:#FAD24D;" d="M179.523,237.002c43.476,0,78.719,12.491,78.719,27.893c0,15.405-35.243,27.893-78.719,27.893
	c-43.474,0-78.719-12.491-78.719-27.893C100.805,249.489,136.047,237.002,179.523,237.002z"/>
<path style="fill:#EDB937;" d="M258.245,254.164c0,16.855-35.243,30.526-78.719,30.526s-78.719-13.671-78.719-30.526v-30.529h78.719
	h78.719V254.164z"/>
<path style="fill:#FAD24D;" d="M179.526,198.369c43.474,0,78.719,12.491,78.719,27.893c0,15.405-35.243,27.893-78.719,27.893
	s-78.719-12.491-78.719-27.893C100.808,210.858,136.049,198.369,179.526,198.369z"/>
<path style="fill:#EDB937;" d="M258.242,215.524c0,16.855-35.243,30.526-78.719,30.526c-43.474,0-78.719-13.671-78.719-30.526
	v-30.529h78.719h78.719V215.524z"/>
<path style="fill:#FAD24D;" d="M179.523,159.733c43.476,0,78.719,12.491,78.719,27.893c0,15.405-35.243,27.893-78.719,27.893
	c-43.474,0-78.719-12.491-78.719-27.893C100.805,172.221,136.047,159.733,179.523,159.733z"/>
<path style="fill:#EDB937;" d="M258.242,176.89c0,16.855-35.243,30.526-78.719,30.526c-43.474,0-78.719-13.671-78.719-30.526
	v-30.529h78.719h78.719V176.89z"/>
<path style="fill:#FAD24D;" d="M179.523,121.099c43.476,0,78.719,12.491,78.719,27.895s-35.243,27.893-78.719,27.893
	c-43.474,0-78.719-12.491-78.719-27.893C100.805,133.589,136.047,121.099,179.523,121.099z"/>
<path style="fill:#EDB937;" d="M258.242,138.256c0,16.855-35.243,30.526-78.719,30.526s-78.719-13.671-78.719-30.526v-30.529h78.719
	h78.719V138.256z"/>
<path style="fill:#FAD24D;" d="M179.526,82.461c43.474,0,78.719,12.491,78.719,27.895S223,138.25,179.526,138.25
	c-43.476,0-78.719-12.491-78.719-27.893C100.808,94.953,136.049,82.461,179.526,82.461z"/>
<g>
	<path style="fill:#EDB937;" d="M156.774,124.089c4.926,1.128,9.837,1.786,14.749,1.993c4.941,0.197,9.487-0.026,13.684-0.688
		c4.184-0.656,7.667-1.632,10.471-2.932c2.238-1.036,3.741-2.138,4.548-3.305c0.771-1.168,0.831-2.342,0.166-3.517
		c-0.569-1.118-1.718-2.162-3.431-3.127c-1.695-0.968-4.147-2.204-7.345-3.68l15.329-7.1c3.093,1.577,3.617,3.229,1.632,4.944
		c-1.674,1.461-0.905,2.634,2.292,3.504c1.692,0.462,3.575,0.64,5.661,0.551c2.08-0.092,3.738-0.422,4.973-0.994
		c1.104-0.511,1.92-1.181,2.455-2.014c0.519-0.828,0.685-1.737,0.483-2.718c-0.216-1.27-1.16-2.421-2.835-3.481
		c-1.674-1.047-4.123-2.112-7.324-3.187l3.984-1.846c2.012-0.931,1.991-1.679-0.087-2.246c-2.049-0.559-4.108-0.362-6.172,0.596
		l-3.911,1.812c-7.158-1.624-13.871-2.296-20.132-2.012c-6.246,0.28-11.499,1.403-15.725,3.362c-3.245,1.503-4.983,2.982-5.228,4.43
		c-0.257,1.45,0.538,2.83,2.347,4.147c1.804,1.314,4.427,2.768,7.862,4.377l-17.13,7.937c-1.711-0.807-2.776-1.598-3.213-2.366
		c-0.433-0.764-0.43-1.485-0.029-2.162c0.427-0.674,1.204-1.598,2.355-2.765c0.525-0.543,0.559-1.07,0.079-1.579
		c-0.501-0.517-1.479-0.968-2.945-1.366c-1.807-0.49-3.796-0.682-5.954-0.577c-2.175,0.103-3.842,0.433-5.015,0.976
		c-1.595,0.74-2.783,1.619-3.53,2.639c-0.745,1.007-0.926,2.133-0.582,3.365c0.364,1.228,1.456,2.468,3.271,3.72
		c1.809,1.254,4.459,2.473,7.934,3.651l-0.045,0.021l-2.28,1.057c-1.298,0.601-0.955,1.474,0.758,1.941h0.003
		c1.716,0.467,4.179,0.356,5.474-0.244l2.4-1.112L156.774,124.089z M184.804,106.515l14.114-6.539
		c-3.344-0.456-6.28-0.664-8.814-0.614c-2.536,0.05-4.835,0.554-6.873,1.498c-1.933,0.897-2.691,1.771-2.254,2.621
		c0.435,0.85,1.705,1.862,3.825,3.032L184.804,106.515L184.804,106.515z M180.045,113.266l-16.147,7.48
		c3.77,0.664,7.29,0.892,10.581,0.688c3.292-0.216,5.922-0.773,7.921-1.7c2.141-0.991,2.922-1.991,2.35-3.006
		c-0.564-1.012-2.13-2.169-4.706-3.46V113.266z"/>
	<path style="fill:#EDB937;" d="M438.789,369.71c0,16.855-35.245,30.526-78.719,30.526c-43.476,0-78.719-13.671-78.719-30.526
		v-30.529h78.719h78.719V369.71z"/>
</g>
<path style="fill:#FAD24D;" d="M360.07,313.918c43.474,0,78.719,12.491,78.719,27.893c0,15.405-35.245,27.893-78.719,27.893
	c-43.476,0-78.719-12.491-78.719-27.893C281.351,326.407,316.594,313.918,360.07,313.918z"/>
<path style="fill:#EDB937;" d="M438.789,331.43c0,16.855-35.243,30.526-78.719,30.526c-43.474,0-78.719-13.671-78.719-30.526
	v-30.529h78.719h78.719V331.43z"/>
<path style="fill:#FAD24D;" d="M360.07,275.638c43.476,0,78.719,12.491,78.719,27.893c0,15.405-35.243,27.893-78.719,27.893
	c-43.474,0-78.719-12.491-78.719-27.893C281.351,288.127,316.594,275.638,360.07,275.638z"/>
<path style="fill:#EDB937;" d="M438.789,292.792c0,16.855-35.245,30.526-78.719,30.526c-43.476,0-78.719-13.671-78.719-30.526
	v-30.529h78.719h78.719V292.792z"/>
<path style="fill:#FAD24D;" d="M360.07,237.002c43.474,0,78.719,12.491,78.719,27.893c0,15.405-35.245,27.893-78.719,27.893
	c-43.476,0-78.719-12.491-78.719-27.893C281.351,249.489,316.594,237.002,360.07,237.002z"/>
<path style="fill:#EDB937;" d="M438.789,254.164c0,16.855-35.243,30.526-78.719,30.526c-43.474,0-78.719-13.671-78.719-30.526
	v-30.529h78.719h78.719V254.164z"/>
<path style="fill:#FAD24D;" d="M360.07,198.372c43.476,0,78.719,12.491,78.719,27.893c0,15.405-35.243,27.893-78.719,27.893
	c-43.474,0-78.719-12.491-78.719-27.893C281.351,210.861,316.597,198.372,360.07,198.372z"/>
<g>
	<path style="fill:#EDB937;" d="M337.318,240c4.926,1.128,9.837,1.786,14.749,1.993c4.941,0.197,9.484-0.026,13.681-0.688
		c4.184-0.656,7.667-1.632,10.471-2.93c2.238-1.036,3.741-2.138,4.548-3.305c0.773-1.168,0.831-2.342,0.166-3.515
		c-0.567-1.118-1.718-2.162-3.431-3.127c-1.692-0.968-4.147-2.204-7.345-3.68l15.326-7.103c3.095,1.579,3.617,3.229,1.632,4.944
		c-1.674,1.461-0.905,2.631,2.293,3.502c1.692,0.462,3.575,0.64,5.663,0.551c2.08-0.092,3.738-0.422,4.973-0.997
		c1.104-0.511,1.92-1.181,2.452-2.014c0.519-0.828,0.688-1.737,0.483-2.718c-0.216-1.27-1.16-2.421-2.835-3.481
		c-1.674-1.047-4.123-2.112-7.324-3.187l3.984-1.846c2.012-0.931,1.991-1.679-0.087-2.246c-2.049-0.559-4.108-0.359-6.172,0.596
		l-3.911,1.812c-7.158-1.624-13.868-2.296-20.132-2.012c-6.246,0.28-11.499,1.403-15.725,3.362c-3.245,1.503-4.986,2.982-5.228,4.43
		c-0.257,1.448,0.538,2.83,2.347,4.147c1.804,1.314,4.427,2.768,7.862,4.377l-17.13,7.937c-1.711-0.807-2.776-1.598-3.211-2.366
		c-0.433-0.764-0.43-1.487-0.032-2.162c0.427-0.674,1.204-1.6,2.355-2.765c0.522-0.54,0.559-1.07,0.076-1.579
		c-0.501-0.514-1.479-0.968-2.945-1.364c-1.807-0.493-3.796-0.682-5.951-0.577c-2.177,0.102-3.845,0.435-5.015,0.978
		c-1.595,0.74-2.783,1.619-3.53,2.639c-0.745,1.007-0.926,2.133-0.582,3.362c0.364,1.228,1.458,2.468,3.274,3.72
		c1.809,1.254,4.456,2.471,7.932,3.649l-0.045,0.021l-2.28,1.055c-1.298,0.603-0.955,1.474,0.759,1.941h0.003
		c1.716,0.467,4.176,0.359,5.474-0.244l2.402-1.115h0.005V240z M365.345,222.428l14.114-6.539c-3.344-0.454-6.277-0.664-8.814-0.614
		c-2.536,0.053-4.835,0.554-6.873,1.5c-1.936,0.897-2.692,1.771-2.254,2.621C361.956,220.246,363.228,221.259,365.345,222.428z
		 M360.59,229.18l-16.147,7.48c3.767,0.664,7.29,0.892,10.581,0.688c3.29-0.216,5.922-0.773,7.922-1.7
		c2.138-0.989,2.922-1.991,2.347-3.006C364.728,231.629,363.166,230.473,360.59,229.18z"/>
	<path style="fill:#EDB937;" d="M332.316,422.054c0,16.855-35.245,30.526-78.719,30.526s-78.719-13.671-78.719-30.526v-30.529
		h78.719h78.719V422.054z"/>
</g>
<path style="fill:#FAD24D;" d="M253.594,366.26c43.474,0,78.719,12.491,78.719,27.895c0,15.405-35.245,27.893-78.719,27.893
	s-78.719-12.491-78.719-27.893C174.875,378.751,210.121,366.26,253.594,366.26z"/>
<path style="fill:#EDB937;" d="M230.845,407.887c4.926,1.128,9.837,1.786,14.749,1.993c4.941,0.197,9.484-0.026,13.681-0.688
	c4.184-0.656,7.667-1.632,10.471-2.932c2.238-1.036,3.741-2.138,4.548-3.305c0.771-1.168,0.831-2.342,0.166-3.515
	c-0.567-1.118-1.718-2.162-3.431-3.127c-1.692-0.968-4.147-2.204-7.345-3.68l15.326-7.103c3.095,1.579,3.617,3.229,1.632,4.944
	c-1.674,1.461-0.905,2.634,2.293,3.504c1.692,0.462,3.575,0.64,5.663,0.551c2.077-0.092,3.738-0.422,4.973-0.994
	c1.104-0.511,1.92-1.181,2.452-2.014c0.519-0.829,0.688-1.737,0.483-2.718c-0.216-1.27-1.16-2.423-2.835-3.481
	c-1.674-1.047-4.123-2.112-7.324-3.187l3.984-1.846c2.012-0.931,1.991-1.679-0.087-2.246c-2.049-0.559-4.108-0.362-6.172,0.596
	l-3.911,1.812c-7.158-1.624-13.868-2.296-20.132-2.012c-6.246,0.28-11.499,1.403-15.725,3.362c-3.248,1.503-4.986,2.982-5.228,4.43
	c-0.257,1.45,0.538,2.83,2.347,4.147c1.804,1.314,4.425,2.768,7.862,4.377l-17.13,7.937c-1.711-0.807-2.776-1.598-3.211-2.366
	c-0.435-0.764-0.43-1.485-0.032-2.162c0.427-0.674,1.204-1.598,2.355-2.765c0.522-0.543,0.559-1.07,0.076-1.579
	c-0.501-0.517-1.479-0.968-2.945-1.366c-1.807-0.493-3.796-0.682-5.951-0.577c-2.177,0.103-3.845,0.433-5.015,0.976
	c-1.595,0.74-2.783,1.619-3.53,2.639c-0.745,1.007-0.928,2.133-0.582,3.365c0.364,1.228,1.456,2.468,3.274,3.72
	c1.809,1.254,4.456,2.473,7.931,3.651l-0.045,0.021l-2.28,1.057c-1.298,0.601-0.955,1.474,0.759,1.941h0.003
	c1.716,0.467,4.176,0.356,5.474-0.243l2.402-1.112L230.845,407.887z M258.872,390.313l14.114-6.539
	c-3.344-0.456-6.277-0.664-8.814-0.614c-2.536,0.053-4.835,0.556-6.873,1.5c-1.933,0.897-2.691,1.771-2.254,2.62
	C255.484,388.131,256.755,389.144,258.872,390.313z M254.116,397.065l-16.147,7.48c3.767,0.664,7.29,0.892,10.581,0.688
	c3.29-0.215,5.92-0.773,7.921-1.7c2.138-0.991,2.922-1.991,2.347-3.006c-0.564-1.012-2.13-2.169-4.703-3.46L254.116,397.065
	L254.116,397.065z"/>
</svg>